<svg width="60" height="40" viewBox="0 0 60 40" fill="none" xmlns="http://www.w3.org/2000/svg">
<rect x="0.5" y="0.5" width="59" height="39" rx="5.5" fill="#1F72CD" stroke="#DDDDDD"/>
<path fill-rule="evenodd" clip-rule="evenodd" d="M11.2882 13.9166L5.83337 26.0677H12.3635L13.1731 24.1303H15.0236L15.8331 26.0677H23.021V24.589L23.6615 26.0677H27.3796L28.0201 24.5577V26.0677H42.9689L44.7866 24.1806L46.4887 26.0677L54.1667 26.0833L48.6947 20.0261L54.1667 13.9166H46.6077L44.8383 15.7688L43.1899 13.9166H26.9275L25.531 17.0529L24.1018 13.9166H17.5853V15.345L16.8604 13.9166H11.2882ZM33.6111 15.6421H42.1954L44.821 18.4969L47.5311 15.6421H50.1567L46.1674 20.0244L50.1567 24.3561H47.4121L44.7865 21.4682L42.0625 24.3561H33.6111V15.6421ZM35.731 19.039V17.4474V17.4458H41.0874L43.4246 19.9914L40.9838 22.5508H35.731V20.8131H40.4142V19.039H35.731ZM12.5517 15.6421H15.7348L19.353 23.8818V15.6421H22.84L25.6346 21.5499L28.2102 15.6421H31.6797V24.3613H29.5686L29.5513 17.529L26.4735 24.3613H24.585L21.4899 17.529V24.3613H17.1468L16.3235 22.4066H11.8751L11.0534 24.3596H8.72644L12.5517 15.6421ZM12.6347 20.5995L14.1003 17.1174L15.5641 20.5995H12.6347Z" fill="white"/>
</svg>
