<svg width="25" height="24" viewBox="0 0 25 24" fill="none" xmlns="http://www.w3.org/2000/svg">
<path d="M4.5 16C4.5 16.88 4.89 17.67 5.5 18.22V19.5C5.5 20.33 6.17 21 7 21C7.83 21 8.5 20.33 8.5 19.5V19H16.5V19.5C16.5 20.32 17.17 21 18 21C18.82 21 19.5 20.33 19.5 19.5V18.22C20.11 17.67 20.5 16.88 20.5 16V6C20.5 2.5 16.92 2 12.5 2C8.08 2 4.5 2.5 4.5 6V16ZM8 17C7.17 17 6.5 16.33 6.5 15.5C6.5 14.67 7.17 14 8 14C8.83 14 9.5 14.67 9.5 15.5C9.5 16.33 8.83 17 8 17ZM17 17C16.17 17 15.5 16.33 15.5 15.5C15.5 14.67 16.17 14 17 14C17.83 14 18.5 14.67 18.5 15.5C18.5 16.33 17.83 17 17 17ZM18.5 11H6.5V6H18.5V11Z" fill="#024B93"/>
</svg>
