<svg width="194" height="52" viewBox="0 0 194 52" fill="none" xmlns="http://www.w3.org/2000/svg">
<g clip-path="url(#clip0_3_10)">
<path d="M0 30.3104V0.32642L34.8134 0.314545C52.688 2.01562 53.236 28.072 35.4057 30.3193L0 30.3075V30.3104ZM13.0321 21.998H30.0626C30.5424 21.998 32.2395 20.861 32.6779 20.4632C35.3228 18.0645 35.5775 14.0003 33.4687 11.1622C32.7904 10.2479 30.5395 8.63882 29.4702 8.63882H13.0321V21.998Z" fill="#024B93"/>
<path d="M194 11.0138V19.92C191.856 25.2725 187.419 29.7998 181.424 30.3223C175.942 30.7973 163.7 30.9072 158.342 30.2808C142.085 28.3778 141.25 1.84939 159.797 0.332375C165.321 -0.118869 174.695 -0.0921508 180.239 0.317532C186.98 0.816276 191.743 4.74091 194 11.0168V11.0138ZM160.623 10.809C157.608 14.2883 159.107 20.3504 163.502 21.8407C165.602 22.5532 173.072 22.5562 175.412 22.2177C182.707 21.1609 183.118 10.7466 176.688 8.92086C174.822 8.39243 166.662 8.37759 164.556 8.66556C163.422 8.81993 161.358 9.96288 160.626 10.809H160.623Z" fill="#024B93"/>
<path d="M194 38.9197V51.9821H114.771L114.176 51.6881L107.215 39.365L194.003 38.9197H194ZM128.84 49.904C129 49.7496 128.721 46.1159 128.84 45.4509H123.805V47.2351H126.171V47.8259H120.398C119.51 47.8259 117.94 43.6875 121.568 43.3579C123.879 43.1472 125.176 43.7825 126.923 43.9606C127.495 44.02 128.203 43.5509 128.84 43.6667C128.964 42.8978 128.167 41.5678 127.445 41.3541C126.393 41.0453 120.268 41.2056 119.243 41.6183C115.846 42.9809 116.196 49.0816 119.874 49.8327C120.689 49.9989 126.041 50.0227 126.479 49.7466C126.689 49.613 126.725 49.0697 126.915 49.0044C128.002 48.6333 127.525 49.7258 127.685 49.8624C127.773 49.9396 128.798 49.9425 128.84 49.901V49.904ZM142.908 41.2947H133.282V49.904H135.655V47.2321H140.098C140.237 47.2321 140.838 49.4972 141.276 49.7614C141.892 50.1355 143.205 49.8 143.948 49.901C144.292 49.5982 142.751 48.2296 142.751 47.6655C142.751 47.0154 143.539 47.0748 143.755 46.5701C144.197 45.537 144.265 41.6687 142.914 41.2947H142.908ZM150.976 41.3659C146.442 42.1319 146.448 49.2271 151.228 49.8772C152.478 50.0464 155.262 50.0405 156.533 49.904C161.906 49.328 161.58 41.8587 156.835 41.2858C155.541 41.1284 152.247 41.1492 150.976 41.363V41.3659ZM167.047 41.2947H164.382V47.3805C164.382 48.0248 166.342 49.5833 167.038 49.7644C168.611 50.1771 173.075 50.1088 174.44 49.1499C174.831 48.8738 175.933 47.3984 175.933 47.0837V41.2947H173.563V46.1931C173.563 48.4315 167.047 48.4315 167.047 46.1931V41.2947ZM189.113 41.2947C186.554 40.8405 182.781 41.6301 180.079 41.2947V49.904C183.752 50.6461 182.369 48.2118 182.742 47.8229C182.943 47.6151 187.597 47.9357 188.527 47.8318C192.412 47.3954 191.844 41.7786 189.113 41.2917V41.2947Z" fill="#C9072C"/>
<path d="M0 38.9197L42.9466 38.9227L35.6545 51.9999L0 51.9821V38.9197Z" fill="#C9072C"/>
<path d="M108.255 0.326432L119.513 18.1417L120.2 17.6429L131.061 0.326432H146.018L127.824 30.0344C127.572 30.2956 127.255 30.2808 126.929 30.3253C124.151 30.7053 115.87 30.6222 112.976 30.3253C111.377 30.162 111.178 29.1705 110.352 27.9088C106.149 21.4904 102.524 14.6683 98.2084 8.31524L93.5939 0.323463H108.255V0.326432Z" fill="#024B93"/>
<path d="M100.702 30.3105H86.0412L74.9284 12.4982L74.0991 13.2938L63.6794 30.3105H48.574L65.6283 2.4283C66.2976 1.70691 66.5257 0.290829 67.6571 0.305673L82.6321 0.47489C87.9723 9.23853 93.5613 17.8716 98.8689 26.653C99.5412 27.7663 100.486 29.0577 100.702 30.3075V30.3105Z" fill="#C9072C"/>
<path d="M150.976 41.3659C152.247 41.1522 155.541 41.1314 156.835 41.2888C161.58 41.8617 161.906 49.328 156.533 49.9069C155.262 50.0435 152.478 50.0494 151.228 49.8802C146.448 49.2301 146.442 42.1319 150.976 41.3689V41.3659ZM157.184 47.146C157.96 46.1812 157.721 43.9309 156.403 43.5034C155.005 43.0492 151.05 43.0076 150.523 44.7681C149.344 48.7135 156.18 48.3929 157.184 47.146Z" fill="#FEFEFE"/>
<path d="M128.84 49.904C128.798 49.9455 127.773 49.9425 127.685 49.8654C127.528 49.7288 128.002 48.6363 126.915 49.0074C126.725 49.0727 126.689 49.616 126.479 49.7496C126.041 50.0286 120.689 50.0019 119.874 49.8357C116.196 49.0846 115.846 42.9839 119.243 41.6212C120.271 41.2086 126.396 41.0483 127.445 41.357C128.17 41.5708 128.964 42.9008 128.84 43.6697C128.203 43.5539 127.495 44.02 126.923 43.9636C125.176 43.7854 123.879 43.1531 121.568 43.3609C117.94 43.6904 119.507 47.8288 120.398 47.8288H126.174V47.238H123.802V45.4538H128.84C128.721 46.1188 129 49.7525 128.84 49.9069V49.904Z" fill="#FEFEFE"/>
<path d="M142.908 41.2947C144.259 41.6687 144.191 45.537 143.75 46.5701C143.533 47.0748 142.746 47.0184 142.746 47.6655C142.746 48.2296 144.286 49.5982 143.942 49.901C143.202 49.8 141.887 50.1355 141.271 49.7614C140.835 49.4943 140.231 47.2321 140.092 47.2321H135.649V49.9069H133.279V41.2976H142.905L142.908 41.2947ZM135.356 45.4509H140.835C141.697 45.4509 141.697 43.3728 140.835 43.3728H135.356V45.4509Z" fill="#FEFEFE"/>
<path d="M189.113 41.2947C191.844 41.7816 192.412 47.3984 188.527 47.8348C187.597 47.9387 182.943 47.618 182.742 47.8259C182.366 48.2148 183.752 50.6461 180.079 49.9069V41.2977C182.781 41.6331 186.554 40.8434 189.113 41.2977V41.2947ZM182.449 45.7478H187.928C188.832 45.7478 188.832 43.3728 187.928 43.3728H182.449V45.7478Z" fill="#FEFEFE"/>
<path d="M167.047 41.2947V46.1931C167.047 48.4315 173.563 48.4315 173.563 46.1931V41.2947H175.933V47.0837C175.933 47.3984 174.831 48.8738 174.44 49.1499C173.075 50.1088 168.611 50.1771 167.038 49.7644C166.342 49.5833 164.382 48.0248 164.382 47.3805V41.2947H167.047Z" fill="#FEFEFE"/>
<path d="M157.184 47.146C156.18 48.3929 149.344 48.7135 150.523 44.7681C151.05 43.0077 155.005 43.0462 156.403 43.5034C157.721 43.9309 157.96 46.1812 157.184 47.146Z" fill="#C9072C"/>
<path d="M135.356 45.4509V43.3728H140.835C141.697 43.3728 141.697 45.4509 140.835 45.4509H135.356Z" fill="#C9072C"/>
<path d="M182.449 45.7478V43.3728H187.928C188.832 43.3728 188.832 45.7478 187.928 45.7478H182.449Z" fill="#C9072C"/>
</g>
<defs>
<clipPath id="clip0_3_10">
<rect width="194" height="52" fill="white"/>
</clipPath>
</defs>
</svg>
