<svg width="60" height="40" viewBox="0 0 60 40" fill="none" xmlns="http://www.w3.org/2000/svg">
<path d="M0.5 4C0.5 2.067 2.067 0.5 4 0.5H56C57.933 0.5 59.5 2.067 59.5 4V36C59.5 37.933 57.933 39.5 56 39.5H4C2.067 39.5 0.5 37.933 0.5 36V4Z" fill="white" stroke="#DDDDDD"/>
<path fill-rule="evenodd" clip-rule="evenodd" d="M30 28.9431C27.9699 30.6934 25.3366 31.75 22.4591 31.75C16.0384 31.75 10.8334 26.4893 10.8334 20C10.8334 13.5107 16.0384 8.25 22.4591 8.25C25.3366 8.25 27.9699 9.30661 30 11.0569C32.0301 9.30661 34.6634 8.25 37.541 8.25C43.9616 8.25 49.1666 13.5107 49.1666 20C49.1666 26.4893 43.9616 31.75 37.541 31.75C34.6634 31.75 32.0301 30.6934 30 28.9431Z" fill="#ED0006"/>
<path fill-rule="evenodd" clip-rule="evenodd" d="M30 28.9431C32.4997 26.7879 34.0847 23.5811 34.0847 20C34.0847 16.4189 32.4997 13.2121 30 11.0569C32.0301 9.30661 34.6634 8.25 37.5409 8.25C43.9616 8.25 49.1666 13.5107 49.1666 20C49.1666 26.4893 43.9616 31.75 37.5409 31.75C34.6634 31.75 32.0301 30.6934 30 28.9431Z" fill="#F9A000"/>
<path fill-rule="evenodd" clip-rule="evenodd" d="M30.0001 28.9429C32.4997 26.7877 34.0847 23.5809 34.0847 19.9999C34.0847 16.4189 32.4997 13.2121 30.0001 11.0569C27.5005 13.2121 25.9155 16.4189 25.9155 19.9999C25.9155 23.5809 27.5005 26.7877 30.0001 28.9429Z" fill="#FF5E00"/>
</svg>
