<svg width="60" height="40" viewBox="0 0 60 40" fill="none" xmlns="http://www.w3.org/2000/svg">
<path d="M0.5 4C0.5 2.067 2.067 0.5 4 0.5H56C57.933 0.5 59.5 2.067 59.5 4V36C59.5 37.933 57.933 39.5 56 39.5H4C2.067 39.5 0.5 37.933 0.5 36V4Z" fill="white" stroke="#DDDDDD"/>
<path fill-rule="evenodd" clip-rule="evenodd" d="M17.917 27.0548H14.0226L11.1022 15.9354C10.9636 15.4239 10.6693 14.9717 10.2364 14.7586C9.15596 14.223 7.96541 13.7968 6.66663 13.5818V13.1537H12.9403C13.8061 13.1537 14.4555 13.7968 14.5637 14.5436L16.079 22.5644L19.9715 13.1537H23.7577L17.917 27.0548ZM25.9224 27.0548H22.2444L25.273 13.1537H28.951L25.9224 27.0548ZM33.7092 17.005C33.8174 16.2563 34.4668 15.8282 35.2244 15.8282C36.415 15.7207 37.7119 15.9357 38.7942 16.4694L39.4436 13.4764C38.3613 13.0483 37.1707 12.8334 36.0903 12.8334C32.5205 12.8334 29.923 14.7589 29.923 17.4312C29.923 19.4642 31.7629 20.5317 33.0617 21.1748C34.4668 21.816 35.008 22.2441 34.8997 22.8853C34.8997 23.8471 33.8174 24.2752 32.737 24.2752C31.4382 24.2752 30.1394 23.9546 28.9508 23.419L28.3014 26.4139C29.6002 26.9476 31.0053 27.1626 32.3041 27.1626C36.3068 27.2682 38.7942 25.3445 38.7942 22.4572C38.7942 18.8212 33.7092 18.608 33.7092 17.005ZM51.6669 27.0548L48.7465 13.1537H45.6097C44.9603 13.1537 44.3109 13.5818 44.0945 14.223L38.6867 27.0548H42.4729L43.2286 25.0236H47.8807L48.3136 27.0548H51.6669ZM46.1508 16.8974L47.2312 22.1365H44.2026L46.1508 16.8974Z" fill="#172B85"/>
</svg>
